<svg xmlns="http://www.w3.org/2000/svg" xmlns:xlink="http://www.w3.org/1999/xlink" viewBox="0 0 495.34 108.38"><defs><style>.cls-1{fill:none;}.cls-2{fill:#1970b7;}.cls-3{clip-path:url(#clip-path);}.cls-4{clip-path:url(#clip-path-2);}.cls-5{clip-path:url(#clip-path-3);}.cls-6{clip-path:url(#clip-path-4);}.cls-7{clip-path:url(#clip-path-5);}.cls-8{clip-path:url(#clip-path-6);}.cls-9{clip-path:url(#clip-path-7);}.cls-10{clip-path:url(#clip-path-8);}.cls-11{clip-path:url(#clip-path-9);}.cls-12{fill:#e24b37;}.cls-13{clip-path:url(#clip-path-10);}.cls-14{clip-path:url(#clip-path-11);}.cls-15{clip-path:url(#clip-path-12);}.cls-16{clip-path:url(#clip-path-13);}.cls-17{clip-path:url(#clip-path-14);}</style><clipPath id="clip-path" transform="translate(0.08 0.03)"><path class="cls-1" d="M125,33.31A46.61,46.61,0,0,0,103.37,68c-2.15,18.23,8.8,29.46,27.24,29.46,8.34,0,14.68-1.34,18.58-3l.18-11.94a37.92,37.92,0,0,1-13.46,2.25c-12.16,0-17.56-7.41-16.27-18.44A32.6,32.6,0,0,1,131.86,44a27.28,27.28,0,0,1,16.49-5.41,30,30,0,0,1,12.3,2.32l5.54-12.06c-1.91-1.13-7.38-2.9-14.91-2.9A47.91,47.91,0,0,0,125,33.24"></path></clipPath><clipPath id="clip-path-2" transform="translate(0.08 0.03)"><path class="cls-1" d="M167.59,76.48c.91-7.84,6.6-20.31,15.16-20.31,5.87,0,7.34,4.95,6.8,9.59-1,8.54-7.05,20.5-15,20.5-5.25,0-7.67-3.92-7-9.8m-15.39.21c-1.45,12.57,6.09,20.91,18.85,20.91,17.41,0,31.69-13.49,33.85-31.91,1.36-11.6-5.38-20.8-18.86-20.8-17.93,0-31.8,14.42-33.84,31.83"></path></clipPath><clipPath id="clip-path-3" transform="translate(0.08 0.03)"><path class="cls-1" d="M254.28,54.43c.1-4.43-2.8-9.58-10.82-9.58-6.5,0-13.06,2.91-18.43,9.38h-.2l1.88-8.14H214c-1.15,4.52-2.61,10-4.52,16.38l-10.27,34h14.32l6.79-22.66c2.9-10,9.11-17,14.16-17,3.61,0,4.42,2.67,4,6.18a45.89,45.89,0,0,1-1.31,5.8L228.72,96.5H243L250,73.62c3.17-10.15,8.88-16.78,13.83-16.78,3.39,0,4.65,2.46,4.25,6a36.22,36.22,0,0,1-1.45,6.09l-8.3,27.56H272.7l8.92-29.36a73.92,73.92,0,0,0,1.84-8.7c1-8.55-2.9-13.59-10.66-13.59-6.6,0-13.24,3.09-18.54,9.57"></path></clipPath><clipPath id="clip-path-4" transform="translate(0.08 0.03)"><path class="cls-1" d="M307.37,26.92c-5.56,4.23-8.7,10.51-10.39,16.48L296.26,46h-6.59l-3.49,11.33h6.58l-12,39.16h14.72L307.4,57.32h9.92L320.82,46h-10l.82-2.47c1.45-5.06,4.87-9.18,9.71-9.18a11.76,11.76,0,0,1,4.66.82l3.95-11.75a18.86,18.86,0,0,0-7.69-1.23,24.5,24.5,0,0,0-14.87,4.74"></path></clipPath><clipPath id="clip-path-5" transform="translate(0.08 0.03)"><path class="cls-1" d="M325.6,77.31c1.12-9.38,9.51-21.13,19.08-21.13a22.1,22.1,0,0,1,4,.41L345,68.2c-3.85,12.37-9.9,17.4-14.32,17.4-4.12,0-5.69-3.39-5.11-8.34m-15.78,2.79C308.6,90.55,314,97.56,323,97.56c5.87,0,12.69-2.79,18.32-11.13h.2c-.62,3.61-1.33,7-1.8,10h13.61a129.65,129.65,0,0,1,4.71-22.65l8.37-26.39A56.24,56.24,0,0,0,350,44.91c-24.74,0-38.2,18.14-40.2,35.14"></path></clipPath><clipPath id="clip-path-6" transform="translate(0.08 0.03)"><path class="cls-1" d="M383.59,54.43h-.22l1.91-8.34h-13c-1.26,4.52-2.61,10-4.72,16.38l-10.38,34H372l6.84-22.37c3.38-11.11,9.77-17.19,14.6-17.19,3.81,0,4.75,2.47,4.35,6.08a36,36,0,0,1-1.16,5.55l-8.71,27.93h15l9-29.26a67.42,67.42,0,0,0,1.81-8.44c1-8.71-3.11-13.81-11.35-13.81-6.69,0-13.23,3-18.73,9.47"></path></clipPath><clipPath id="clip-path-7" transform="translate(0.08 0.03)"><path class="cls-1" d="M427.92,76.17c1.13-9.69,8.63-20,17.59-20a8.92,8.92,0,0,1,5.67,1.74l-4.26,13.51c-3.09,9.69-8.88,14.22-13.22,14.22s-6.49-3.4-5.8-9.48m33.83-52.86-7.09,22.78a19.27,19.27,0,0,0-6.76-1.24c-19.06,0-33.66,16.18-35.72,33.69-1.45,12.27,4.78,19.06,13.33,19.06,6,0,12.46-2.57,17.67-9.27h.21l-1.67,8.14h13.59A141,141,0,0,1,460,76.9l16.51-53.59Z"></path></clipPath><clipPath id="clip-path-8" transform="translate(0.08 0.03)"><path class="cls-2" d="M478.53,32.58c-.49,4.35,2.15,7.26,6.28,7.26H485a9.48,9.48,0,0,0,9.75-8.36c.52-4.35-2.24-7.25-6.66-7.25a9.68,9.68,0,0,0-9.56,8.44"></path></clipPath><clipPath id="clip-path-9" transform="translate(0.08 0.03)"><path class="cls-1" d="M472.23,53.51,459.38,96.42h14.84L487,53.51c1.22-4.1-1.1-7.42-5.19-7.42a10.8,10.8,0,0,0-9.65,7.42"></path></clipPath><clipPath id="clip-path-10" transform="translate(0.08 0.03)"><path class="cls-1" d="M13.36,16.42h0a44.84,44.84,0,0,0-7.6,10.87A51.73,51.73,0,0,0,.45,43.53c-.34,2-.44,3.21-.44,3.21-.09,1.19.33,1.19,1.1,1.19H9.82c.62,0,.91-.23,1-1.1,0,0,.29-2.41,1-5.6A4.75,4.75,0,0,1,12,40.4l.26-1.16.22-.87c4.88-18.34,19.85-33,37.47-33,17.09,0,31.6,13.78,36.88,31.3.59,2.09,1,3.88,1.3,5.36a39.48,39.48,0,0,1,.71,4.84c0,.89.51,1,1.06,1.06h8.85c.55,0,1.06,0,1-1.18h0v-.6a51.28,51.28,0,0,0-7.16-21.59,44.29,44.29,0,0,0-4.94-6.83,48.89,48.89,0,0,0-74.25-1.28"></path></clipPath><clipPath id="clip-path-11" transform="translate(0.08 0.03)"><path class="cls-1" d="M66,26.79,50.86,41.84a1.19,1.19,0,0,1-1.66,0l-14.9-15a3.16,3.16,0,0,0-2-.83h-9c-.63,0-.79.38-.34.83L43.49,47.48a1.18,1.18,0,0,1,0,1.65L26.08,66.54a1.16,1.16,0,0,1-1.65,0L12.12,54.2a3.18,3.18,0,0,0-2-.83h-9c-.64,0-.8.38-.34.83L18.26,71.6a3.28,3.28,0,0,1,.84,2l.23,25.79a2.07,2.07,0,0,0,1.05,1.67l9.91,4.06a.75.75,0,0,0,1-.35.8.8,0,0,0,.08-.4V73.81a3.24,3.24,0,0,1,.81-2L42.86,61c.45-.46.83-.32.83.33v45.51a1.3,1.3,0,0,0,1.17,1.26s3.34.25,5.65.25c1.87,0,4.35-.18,4.35-.18A1.23,1.23,0,0,0,56,106.94V61.33c0-.65.37-.79.82-.34L67.55,71.63a3.21,3.21,0,0,1,.83,2v31.1a.79.79,0,0,0,.73.86.76.76,0,0,0,.39-.06l10.15-4a1.92,1.92,0,0,0,1.07-1.64V73.81a3.25,3.25,0,0,1,.82-2L99.1,54.27c.47-.45.31-.83-.34-.83h-9a3.18,3.18,0,0,0-2,.83L75.46,66.54a1.16,1.16,0,0,1-1.64,0h0L56.4,49.13a1.16,1.16,0,0,1,0-1.65L77.29,26.87c.46-.45.32-.82-.34-.82H68a3.3,3.3,0,0,0-2,.82"></path></clipPath><clipPath id="clip-path-12" transform="translate(0.08 0.03)"><path class="cls-1" d="M17.26,48.93a8,8,0,0,0,16,1.36,10.29,10.29,0,0,0,0-1.36,8,8,0,1,0-16-1.36,7.72,7.72,0,0,0,0,1.36"></path></clipPath><clipPath id="clip-path-13" transform="translate(0.08 0.03)"><path class="cls-1" d="M41.93,24.11a8,8,0,0,0,16,1,7.69,7.69,0,0,0,0-1,8,8,0,1,0-16-1q0,.48,0,1"></path></clipPath><clipPath id="clip-path-14" transform="translate(0.08 0.03)"><path class="cls-1" d="M66.7,48.93a8,8,0,1,0,8-8,8,8,0,0,0-8,8"></path></clipPath></defs><g id="Capa_2" data-name="Capa 2"><g id="Capa_1-2" data-name="Capa 1"><g id="logo"><path class="cls-2" d="M125,33.31A46.61,46.61,0,0,0,103.37,68c-2.15,18.23,8.8,29.46,27.24,29.46,8.34,0,14.68-1.34,18.58-3l.18-11.94a37.92,37.92,0,0,1-13.46,2.25c-12.16,0-17.56-7.41-16.27-18.44A32.6,32.6,0,0,1,131.86,44a27.28,27.28,0,0,1,16.49-5.41,30,30,0,0,1,12.3,2.32l5.54-12.06c-1.91-1.13-7.38-2.9-14.91-2.9A47.91,47.91,0,0,0,125,33.24" transform="translate(0.08 0.03)"></path><g class="cls-3"><rect class="cls-2" x="101.3" y="26.04" width="64.97" height="71.5"></rect></g><path class="cls-2" d="M167.59,76.48c.91-7.84,6.6-20.31,15.16-20.31,5.87,0,7.34,4.95,6.8,9.59-1,8.54-7.05,20.5-15,20.5-5.25,0-7.67-3.92-7-9.8m-15.39.21c-1.45,12.57,6.09,20.91,18.85,20.91,17.41,0,31.69-13.49,33.85-31.91,1.36-11.6-5.38-20.8-18.86-20.8-17.93,0-31.8,14.42-33.84,31.83" transform="translate(0.08 0.03)"></path><g class="cls-4"><rect class="cls-2" x="150.79" y="44.88" width="55.56" height="52.76"></rect></g><path class="cls-2" d="M254.28,54.43c.1-4.43-2.8-9.58-10.82-9.58-6.5,0-13.06,2.91-18.43,9.38h-.2l1.88-8.14H214c-1.15,4.52-2.61,10-4.52,16.38l-10.27,34h14.32l6.79-22.66c2.9-10,9.11-17,14.16-17,3.61,0,4.42,2.67,4,6.18a45.89,45.89,0,0,1-1.31,5.8L228.72,96.5H243L250,73.62c3.17-10.15,8.88-16.78,13.83-16.78,3.39,0,4.65,2.46,4.25,6a36.22,36.22,0,0,1-1.45,6.09l-8.3,27.56H272.7l8.92-29.36a73.92,73.92,0,0,0,1.84-8.7c1-8.55-2.9-13.59-10.66-13.59-6.6,0-13.24,3.09-18.54,9.57" transform="translate(0.08 0.03)"></path><g class="cls-5"><rect class="cls-2" x="199.33" y="44.88" width="85.22" height="51.61"></rect></g><path class="cls-2" d="M307.37,26.92c-5.56,4.23-8.7,10.51-10.39,16.48L296.26,46h-6.59l-3.49,11.33h6.58l-12,39.16h14.72L307.4,57.32h9.92L320.82,46h-10l.82-2.47c1.45-5.06,4.87-9.18,9.71-9.18a11.76,11.76,0,0,1,4.66.82l3.95-11.75a18.86,18.86,0,0,0-7.69-1.23,24.5,24.5,0,0,0-14.87,4.74" transform="translate(0.08 0.03)"></path><g class="cls-6"><rect class="cls-2" x="280.83" y="22.21" width="49.19" height="74.29"></rect></g><path class="cls-2" d="M325.6,77.31c1.12-9.38,9.51-21.13,19.08-21.13a22.1,22.1,0,0,1,4,.41L345,68.2c-3.85,12.37-9.9,17.4-14.32,17.4-4.12,0-5.69-3.39-5.11-8.34m-15.78,2.79C308.6,90.55,314,97.56,323,97.56c5.87,0,12.69-2.79,18.32-11.13h.2c-.62,3.61-1.33,7-1.8,10h13.61a129.65,129.65,0,0,1,4.71-22.65l8.37-26.39A56.24,56.24,0,0,0,350,44.91c-24.74,0-38.2,18.14-40.2,35.14" transform="translate(0.08 0.03)"></path><g class="cls-7"><rect class="cls-2" x="308.68" y="44.98" width="57.82" height="52.64"></rect></g><path class="cls-2" d="M383.59,54.43h-.22l1.91-8.34h-13c-1.26,4.52-2.61,10-4.72,16.38l-10.38,34H372l6.84-22.37c3.38-11.11,9.77-17.19,14.6-17.19,3.81,0,4.75,2.47,4.35,6.08a36,36,0,0,1-1.16,5.55l-8.71,27.93h15l9-29.26a67.42,67.42,0,0,0,1.81-8.44c1-8.71-3.11-13.81-11.35-13.81-6.69,0-13.23,3-18.73,9.47" transform="translate(0.08 0.03)"></path><g class="cls-8"><rect class="cls-2" x="357.17" y="44.98" width="57.6" height="51.51"></rect></g><path class="cls-2" d="M427.92,76.17c1.13-9.69,8.63-20,17.59-20a8.92,8.92,0,0,1,5.67,1.74l-4.26,13.51c-3.09,9.69-8.88,14.22-13.22,14.22s-6.49-3.4-5.8-9.48m33.83-52.86-7.09,22.78a19.27,19.27,0,0,0-6.76-1.24c-19.06,0-33.66,16.18-35.72,33.69-1.45,12.27,4.78,19.06,13.33,19.06,6,0,12.46-2.57,17.67-9.27h.21l-1.67,8.14h13.59A141,141,0,0,1,460,76.9l16.51-53.59Z" transform="translate(0.08 0.03)"></path><g class="cls-9"><rect class="cls-2" x="410.82" y="23.34" width="65.74" height="74.29"></rect></g><path class="cls-2" d="M478.53,32.58c-.49,4.35,2.15,7.26,6.28,7.26H485a9.48,9.48,0,0,0,9.75-8.36c.52-4.35-2.24-7.25-6.66-7.25a9.68,9.68,0,0,0-9.56,8.44" transform="translate(0.08 0.03)"></path><g class="cls-10"><rect class="cls-2" x="478.11" y="24.17" width="17.23" height="15.67"></rect></g><path class="cls-2" d="M472.23,53.51,459.38,96.42h14.84L487,53.51c1.22-4.1-1.1-7.42-5.19-7.42a10.8,10.8,0,0,0-9.65,7.42" transform="translate(0.08 0.03)"></path><g class="cls-11"><rect class="cls-2" x="459.46" y="46.12" width="28.93" height="50.34"></rect></g><path class="cls-12" d="M13.36,16.42h0a44.84,44.84,0,0,0-7.6,10.87A51.73,51.73,0,0,0,.45,43.53c-.34,2-.44,3.21-.44,3.21-.09,1.19.33,1.19,1.1,1.19H9.82c.62,0,.91-.23,1-1.1,0,0,.29-2.41,1-5.6A4.75,4.75,0,0,1,12,40.4l.26-1.16.22-.87c4.88-18.34,19.85-33,37.47-33,17.09,0,31.6,13.78,36.88,31.3.59,2.09,1,3.88,1.3,5.36a39.48,39.48,0,0,1,.71,4.84c0,.89.51,1,1.06,1.06h8.85c.55,0,1.06,0,1-1.18h0v-.6a51.28,51.28,0,0,0-7.16-21.59,44.29,44.29,0,0,0-4.94-6.83,48.89,48.89,0,0,0-74.25-1.28" transform="translate(0.08 0.03)"></path><g class="cls-13"><rect class="cls-12" width="99.92" height="47.99"></rect></g><path class="cls-2" d="M66,26.79,50.86,41.84a1.19,1.19,0,0,1-1.66,0l-14.9-15a3.16,3.16,0,0,0-2-.83h-9c-.63,0-.79.38-.34.83L43.49,47.48a1.18,1.18,0,0,1,0,1.65L26.08,66.54a1.16,1.16,0,0,1-1.65,0L12.12,54.2a3.18,3.18,0,0,0-2-.83h-9c-.64,0-.8.38-.34.83L18.26,71.6a3.28,3.28,0,0,1,.84,2l.23,25.79a2.07,2.07,0,0,0,1.05,1.67l9.91,4.06a.75.75,0,0,0,1-.35.8.8,0,0,0,.08-.4V73.81a3.24,3.24,0,0,1,.81-2L42.86,61c.45-.46.83-.32.83.33v45.51a1.3,1.3,0,0,0,1.17,1.26s3.34.25,5.65.25c1.87,0,4.35-.18,4.35-.18A1.23,1.23,0,0,0,56,106.94V61.33c0-.65.37-.79.82-.34L67.55,71.63a3.21,3.21,0,0,1,.83,2v31.1a.79.79,0,0,0,.73.86.76.76,0,0,0,.39-.06l10.15-4a1.92,1.92,0,0,0,1.07-1.64V73.81a3.25,3.25,0,0,1,.82-2L99.1,54.27c.47-.45.31-.83-.34-.83h-9a3.18,3.18,0,0,0-2,.83L75.46,66.54a1.16,1.16,0,0,1-1.64,0h0L56.4,49.13a1.16,1.16,0,0,1,0-1.65L77.29,26.87c.46-.45.32-.82-.34-.82H68a3.3,3.3,0,0,0-2,.82" transform="translate(0.08 0.03)"></path><g class="cls-14"><rect class="cls-2" x="0.45" y="26.01" width="99.22" height="82.37"></rect></g><path class="cls-2" d="M17.26,48.93a8,8,0,0,0,16,1.36,10.29,10.29,0,0,0,0-1.36,8,8,0,1,0-16-1.36,7.72,7.72,0,0,0,0,1.36" transform="translate(0.08 0.03)"></path><g class="cls-15"><rect class="cls-2" x="17.33" y="40.92" width="16.01" height="16.07"></rect></g><path class="cls-2" d="M41.93,24.11a8,8,0,0,0,16,1,7.69,7.69,0,0,0,0-1,8,8,0,1,0-16-1q0,.48,0,1" transform="translate(0.08 0.03)"></path><g class="cls-16"><rect class="cls-2" x="42.01" y="16.15" width="16" height="16.06"></rect></g><path class="cls-2" d="M66.7,48.93a8,8,0,1,0,8-8,8,8,0,0,0-8,8" transform="translate(0.08 0.03)"></path><g class="cls-17"><rect class="cls-2" x="66.77" y="40.94" width="16.01" height="16.06"></rect></g></g></g></g></svg>